<?xml version="1.0" encoding="UTF-8"?>
<svg id="Capa_1" xmlns="http://www.w3.org/2000/svg" xmlns:xlink="http://www.w3.org/1999/xlink" version="1.1" viewBox="0 0 500 500">
  <!-- Generator: Adobe Illustrator 30.2.1, SVG Export Plug-In . SVG Version: 2.1.1 Build 1)  -->
  <defs>
    <style>
      .st0 {
        fill: url(#Degradado_sin_nombre_7);
      }

      .st1 {
        fill: url(#Degradado_sin_nombre_75);
      }

      .st2 {
        fill: url(#Degradado_sin_nombre_76);
      }

      .st3 {
        fill: url(#Degradado_sin_nombre_77);
      }

      .st4 {
        fill: url(#Degradado_sin_nombre_73);
      }

      .st5 {
        fill: url(#Degradado_sin_nombre_72);
      }

      .st6 {
        fill: url(#Degradado_sin_nombre_74);
      }

      .st7 {
        fill: url(#Degradado_sin_nombre_71);
      }
    </style>
    <linearGradient id="Degradado_sin_nombre_7" data-name="Degradado sin nombre 7" x1="92.25" y1="111.7" x2="399.33" y2="109.59" gradientUnits="userSpaceOnUse">
      <stop offset="0" stop-color="#3888c8"/>
      <stop offset="1" stop-color="#11aa7e"/>
    </linearGradient>
    <linearGradient id="Degradado_sin_nombre_71" data-name="Degradado sin nombre 7" x1="93.03" y1="113.75" x2="400.11" y2="111.64" xlink:href="#Degradado_sin_nombre_7"/>
    <linearGradient id="Degradado_sin_nombre_72" data-name="Degradado sin nombre 7" x1="92.66" y1="112.76" x2="399.74" y2="110.66" xlink:href="#Degradado_sin_nombre_7"/>
    <linearGradient id="Degradado_sin_nombre_73" data-name="Degradado sin nombre 7" x1="94.92" y1="390.45" x2="402" y2="388.34" xlink:href="#Degradado_sin_nombre_7"/>
    <linearGradient id="Degradado_sin_nombre_74" data-name="Degradado sin nombre 7" x1="94.53" y1="389.42" x2="401.61" y2="387.32" xlink:href="#Degradado_sin_nombre_7"/>
    <linearGradient id="Degradado_sin_nombre_75" data-name="Degradado sin nombre 7" x1="93.46" y1="251.59" x2="400.97" y2="249.48" xlink:href="#Degradado_sin_nombre_7"/>
    <linearGradient id="Degradado_sin_nombre_76" data-name="Degradado sin nombre 7" x1="93.2" y1="250.05" x2="400.28" y2="247.94" xlink:href="#Degradado_sin_nombre_7"/>
    <linearGradient id="Degradado_sin_nombre_77" data-name="Degradado sin nombre 7" x1="93.67" y1="319.22" x2="400.76" y2="317.12" xlink:href="#Degradado_sin_nombre_7"/>
  </defs>
  <rect class="st0" x="38.9" y="50.5" width="122.29" height="122.29" rx="61.14" ry="61.14"/>
  <rect class="st7" x="338.82" y="50.5" width="122.29" height="122.29" rx="61.14" ry="61.14"/>
  <rect class="st5" x="194.32" y="50.5" width="122.29" height="122.29" rx="61.14" ry="61.14"/>
  <rect class="st4" x="338.82" y="327.21" width="122.29" height="122.29" rx="61.14" ry="61.14"/>
  <rect class="st6" x="188.86" y="327.21" width="122.29" height="122.29" rx="61.14" ry="61.14"/>
  <rect class="st1" x="188.86" y="188.86" width="272.25" height="122.29" rx="61.14" ry="61.14"/>
  <rect class="st2" x="38.9" y="188.86" width="122.29" height="122.29" rx="61.14" ry="61.14"/>
  <rect class="st3" x="38.9" y="188.86" width="122.29" height="260.64" rx="61.14" ry="61.14"/>
</svg>