<?xml version="1.0" encoding="UTF-8"?>
<svg id="Capa_1" xmlns="http://www.w3.org/2000/svg" xmlns:xlink="http://www.w3.org/1999/xlink" version="1.1" viewBox="0 0 500 500">
  <!-- Generator: Adobe Illustrator 30.2.1, SVG Export Plug-In . SVG Version: 2.1.1 Build 1)  -->
  <defs>
    <style>
      .st0 {
        fill: url(#Degradado_sin_nombre_7);
      }

      .st1 {
        fill: url(#Degradado_sin_nombre_75);
      }

      .st2 {
        fill: url(#Degradado_sin_nombre_73);
      }

      .st3 {
        fill: url(#Degradado_sin_nombre_72);
      }

      .st4 {
        fill: url(#Degradado_sin_nombre_74);
      }

      .st5 {
        fill: url(#Degradado_sin_nombre_71);
      }
    </style>
    <linearGradient id="Degradado_sin_nombre_7" data-name="Degradado sin nombre 7" x1="99.91" y1="110.62" x2="395.78" y2="114.84" gradientUnits="userSpaceOnUse">
      <stop offset="0" stop-color="#3888c8"/>
      <stop offset="1" stop-color="#11aa7e"/>
    </linearGradient>
    <linearGradient id="Degradado_sin_nombre_71" data-name="Degradado sin nombre 7" x1="101.56" y1="106.33" x2="397.42" y2="110.55" xlink:href="#Degradado_sin_nombre_7"/>
    <linearGradient id="Degradado_sin_nombre_72" data-name="Degradado sin nombre 7" x1="97.6" y1="385.06" x2="393.46" y2="389.29" xlink:href="#Degradado_sin_nombre_7"/>
    <linearGradient id="Degradado_sin_nombre_73" data-name="Degradado sin nombre 7" x1="97.93" y1="249.99" x2="393.79" y2="254.21" xlink:href="#Degradado_sin_nombre_7"/>
    <linearGradient id="Degradado_sin_nombre_74" data-name="Degradado sin nombre 7" x1="96.94" y1="319.67" x2="392.83" y2="323.9" xlink:href="#Degradado_sin_nombre_7"/>
    <linearGradient id="Degradado_sin_nombre_75" data-name="Degradado sin nombre 7" x1="98.73" y1="247.84" x2="394.64" y2="252.07" xlink:href="#Degradado_sin_nombre_7"/>
  </defs>
  <rect class="st0" x="37.31" y="49" width="123.21" height="123.21" rx="61.6" ry="61.6"/>
  <rect class="st5" x="339.48" y="49" width="123.21" height="123.21" rx="61.6" ry="61.6"/>
  <rect class="st3" x="339.48" y="327.79" width="123.21" height="123.21" rx="61.6" ry="61.6"/>
  <rect class="st2" x="37.31" y="188.4" width="123.21" height="123.21" rx="61.6" ry="61.6"/>
  <rect class="st4" x="37.31" y="188.4" width="123.21" height="262.6" rx="61.6" ry="61.6"/>
  <rect class="st1" x="188.4" y="49" width="123.21" height="402" rx="61.6" ry="61.6"/>
</svg>