<?xml version="1.0" encoding="UTF-8"?>
<svg id="Capa_1" xmlns="http://www.w3.org/2000/svg" xmlns:xlink="http://www.w3.org/1999/xlink" version="1.1" viewBox="0 0 500 500">
  <!-- Generator: Adobe Illustrator 30.2.1, SVG Export Plug-In . SVG Version: 2.1.1 Build 1)  -->
  <defs>
    <style>
      .st0 {
        fill: url(#linear-gradient1);
      }

      .st1 {
        fill: url(#linear-gradient);
      }

      .st2 {
        fill: #37b34a;
      }
    </style>
    <linearGradient id="linear-gradient" x1="147.18" y1="308.28" x2="365.12" y2="116.24" gradientUnits="userSpaceOnUse">
      <stop offset="0" stop-color="#00adee"/>
      <stop offset="1" stop-color="#0063af"/>
    </linearGradient>
    <linearGradient id="linear-gradient1" x1="161.84" y1="273.4" x2="221.22" y2="310.04" gradientUnits="userSpaceOnUse">
      <stop offset="0" stop-color="#37b34a"/>
      <stop offset="1" stop-color="#007d34"/>
    </linearGradient>
  </defs>
  <path class="st1" d="M213.32,47.68C101.58,47.68,11,138.26,11,250s90.58,202.32,202.32,202.32,202.32-90.58,202.32-202.32S325.06,47.68,213.32,47.68ZM213.32,430.73c-99.82,0-180.73-80.92-180.73-180.73S113.51,69.27,213.32,69.27s180.73,80.92,180.73,180.73-80.92,180.73-180.73,180.73Z"/>
  <path class="st0" d="M148.29,139.01l17.41,52.72h-65.18l-17.41-52.72h65.18ZM162.11,399.58l-52.44-178.24h65.18l73.75,161.63-86.49,16.61Z"/>
  <path class="st2" d="M162.11,399.58l114.03-21.9s-2.54-185.61,212.86-300.58c0,0-174.35,0-261.71,178.45l-65.18,144.03Z"/>
</svg>