<?xml version="1.0" encoding="UTF-8"?>
<svg id="Capa_1" xmlns="http://www.w3.org/2000/svg" version="1.1" viewBox="0 0 808 282">
  <!-- Generator: Adobe Illustrator 30.2.1, SVG Export Plug-In . SVG Version: 2.1.1 Build 1)  -->
  <defs>
    <style>
      .st0 {
        fill: #fff;
      }
    </style>
  </defs>
  <path class="st0" d="M111.83,34.99c-58.82,0-106.51,47.69-106.51,106.51s47.69,106.51,106.51,106.51,106.51-47.69,106.51-106.51-47.69-106.51-106.51-106.51ZM111.83,236.64c-52.55,0-95.14-42.6-95.14-95.14S59.28,46.36,111.83,46.36s95.14,42.6,95.14,95.14-42.6,95.14-95.14,95.14Z"/>
  <g>
    <path class="st0" d="M267.19,87h29.53v20.77h-29.53v-20.77ZM267.78,115.04h28.34v80.28h-28.34v-80.28Z"/>
    <path class="st0" d="M343.61,197.1c-6.83,0-13.46-.96-19.88-2.89-6.43-1.93-12.46-4.92-18.1-8.98l10.54-17.06c4.65,3.07,9.37,5.37,14.17,6.9,4.8,1.54,9.27,2.3,13.43,2.3,4.75,0,7.12-1.43,7.12-4.3v-.3c0-1.58-1.09-2.82-3.26-3.71-2.18-.89-5.39-1.93-9.64-3.12-3.96-.99-7.67-2.15-11.13-3.49-3.46-1.33-6.48-2.97-9.05-4.9-2.57-1.93-4.6-4.28-6.08-7.05-1.48-2.77-2.23-6.18-2.23-10.24v-.3c0-4.25.82-8.04,2.45-11.35,1.63-3.31,3.88-6.08,6.75-8.31,2.87-2.23,6.26-3.93,10.17-5.12,3.91-1.19,8.18-1.78,12.83-1.78,5.94,0,11.77.82,17.51,2.45,5.74,1.63,10.93,3.93,15.58,6.9l-9.65,17.81c-4.15-2.28-8.36-4.08-12.61-5.42-4.25-1.33-7.96-2-11.13-2-2.18,0-3.81.37-4.9,1.11-1.09.74-1.63,1.66-1.63,2.75v.3c0,1.58,1.11,2.84,3.34,3.78,2.23.94,5.46,2.05,9.72,3.34,3.96,1.09,7.67,2.3,11.13,3.64,3.46,1.34,6.48,2.97,9.05,4.9,2.57,1.93,4.6,4.28,6.08,7.05,1.48,2.77,2.23,6.08,2.23,9.94v.3c0,4.45-.79,8.34-2.38,11.65-1.58,3.32-3.81,6.11-6.68,8.38-2.87,2.28-6.33,3.98-10.39,5.12-4.06,1.14-8.51,1.71-13.35,1.71Z"/>
    <path class="st0" d="M411.71,219.51c-5.04,0-9.67-.64-13.87-1.92-4.21-1.28-8.19-2.95-11.95-5.01l8.75-19.63c2.27,1.39,4.5,2.45,6.68,3.19,2.17.74,4.05,1.11,5.64,1.11,1.38,0,2.6-.22,3.64-.67,1.04-.45,2-1.32,2.89-2.6l-31.46-78.94h29.53l16.03,48.38,15.14-48.38h28.94l-29.38,78.35c-1.78,4.65-3.61,8.63-5.49,11.95-1.88,3.31-4.01,6.01-6.38,8.09s-5.1,3.61-8.16,4.6c-3.07.99-6.58,1.48-10.54,1.48Z"/>
    <path class="st0" d="M512.91,196.96c-8.55,0-15.22-2.03-19.99-6.08-4.77-4.06-7.16-10.88-7.16-20.48v-32.64h-9.5v-22.7h9.5v-20.33h28.34v20.33h18.7v22.7h-18.7v27.15c0,2.87.64,4.92,1.93,6.16,1.28,1.24,3.21,1.86,5.79,1.86,1.88,0,3.71-.25,5.49-.74,1.78-.49,3.51-1.14,5.19-1.93v22.11c-2.57,1.39-5.49,2.5-8.75,3.34-3.26.84-6.88,1.26-10.84,1.26Z"/>
    <path class="st0" d="M567.82,197.1c-3.86,0-7.42-.54-10.68-1.63-3.26-1.09-6.11-2.67-8.53-4.75-2.42-2.08-4.33-4.65-5.71-7.72-1.39-3.07-2.08-6.63-2.08-10.68v-.3c0-4.16.76-7.81,2.3-10.98,1.53-3.17,3.66-5.79,6.38-7.87,2.72-2.08,6.01-3.66,9.87-4.75,3.86-1.09,8.16-1.63,12.91-1.63,3.76,0,7.35.32,10.76.96,3.41.64,6.26,1.36,8.53,2.15v-1.33c0-4.16-1.31-7.37-3.93-9.65-2.62-2.27-6.65-3.41-12.09-3.41-4.25,0-8.11.4-11.57,1.19-3.46.79-6.97,1.88-10.54,3.26l-5.79-19.88c4.55-1.88,9.37-3.39,14.47-4.53,5.09-1.14,11.1-1.71,18.03-1.71s13.33.84,18.33,2.52c4.99,1.68,9.08,4.11,12.24,7.27,3.07,2.97,5.27,6.55,6.6,10.76,1.33,4.21,2,9.13,2,14.76v46.15h-27.9v-8.31c-2.77,3.07-6.06,5.52-9.87,7.34-3.81,1.83-8.38,2.75-13.73,2.75ZM577.91,179.45c4.16,0,7.52-1.19,10.09-3.56,2.57-2.38,3.86-5.59,3.86-9.65v-3.71c-1.39-.59-3.04-1.09-4.97-1.48-1.93-.39-3.93-.59-6.01-.59-4.15,0-7.34.92-9.57,2.75-2.23,1.83-3.34,4.23-3.34,7.2v.3c0,2.77.94,4.92,2.82,6.46,1.88,1.54,4.25,2.3,7.12,2.3Z"/>
    <path class="st0" d="M665.61,197.1c-6.83,0-13.46-.96-19.88-2.89-6.43-1.93-12.46-4.92-18.1-8.98l10.54-17.06c4.65,3.07,9.37,5.37,14.17,6.9,4.8,1.54,9.27,2.3,13.43,2.3,4.75,0,7.12-1.43,7.12-4.3v-.3c0-1.58-1.09-2.82-3.26-3.71-2.18-.89-5.39-1.93-9.64-3.12-3.96-.99-7.67-2.15-11.13-3.49-3.46-1.33-6.48-2.97-9.05-4.9-2.57-1.93-4.6-4.28-6.08-7.05-1.48-2.77-2.23-6.18-2.23-10.24v-.3c0-4.25.82-8.04,2.45-11.35,1.63-3.31,3.88-6.08,6.75-8.31,2.87-2.23,6.26-3.93,10.17-5.12,3.91-1.19,8.18-1.78,12.83-1.78,5.94,0,11.77.82,17.51,2.45,5.74,1.63,10.93,3.93,15.58,6.9l-9.65,17.81c-4.15-2.28-8.36-4.08-12.61-5.42-4.25-1.33-7.96-2-11.13-2-2.18,0-3.81.37-4.9,1.11-1.09.74-1.63,1.66-1.63,2.75v.3c0,1.58,1.11,2.84,3.34,3.78,2.23.94,5.46,2.05,9.72,3.34,3.96,1.09,7.67,2.3,11.13,3.64,3.46,1.34,6.48,2.97,9.05,4.9,2.57,1.93,4.6,4.28,6.08,7.05,1.48,2.77,2.23,6.08,2.23,9.94v.3c0,4.45-.79,8.34-2.38,11.65-1.58,3.32-3.81,6.11-6.68,8.38-2.87,2.28-6.33,3.98-10.39,5.12-4.06,1.14-8.51,1.71-13.35,1.71Z"/>
    <path class="st0" d="M709.97,87h28.34v54.9l21.81-26.86h31.9l-27.9,32.2,28.64,48.08h-31.01l-16.17-27.3-7.27,8.46v18.85h-28.34v-108.32Z"/>
  </g>
  <path class="st0" d="M77.59,83.07l9.16,27.75h-34.31l-9.16-27.75h34.31ZM84.87,220.25l-27.61-93.83h34.31l38.82,85.09-45.53,8.74Z"/>
  <path class="st0" d="M84.87,220.25l60.03-11.53s-1.34-97.71,112.06-158.23c0,0-91.78,0-137.77,93.94l-34.31,75.82Z"/>
</svg>