<?xml version="1.0" encoding="UTF-8"?>
<svg id="Capa_1" xmlns="http://www.w3.org/2000/svg" version="1.1" viewBox="0 0 500 500">
  <!-- Generator: Adobe Illustrator 30.2.1, SVG Export Plug-In . SVG Version: 2.1.1 Build 1)  -->
  <defs>
    <style>
      .st0 {
        fill: #fff;
      }
    </style>
  </defs>
  <path class="st0" d="M213.32,47.68C101.58,47.68,11,138.26,11,250s90.58,202.32,202.32,202.32,202.32-90.58,202.32-202.32S325.06,47.68,213.32,47.68ZM213.32,430.73c-99.82,0-180.73-80.92-180.73-180.73S113.51,69.27,213.32,69.27s180.73,80.92,180.73,180.73-80.92,180.73-180.73,180.73Z"/>
  <path class="st0" d="M148.29,139.01l17.41,52.72h-65.18l-17.41-52.72h65.18ZM162.11,399.58l-52.44-178.24h65.18l73.75,161.63-86.49,16.61Z"/>
  <path class="st0" d="M162.11,399.58l114.03-21.9s-2.54-185.61,212.86-300.58c0,0-174.35,0-261.71,178.45l-65.18,144.03Z"/>
</svg>