<?xml version="1.0" encoding="UTF-8"?>
<svg id="Capa_1" xmlns="http://www.w3.org/2000/svg" version="1.1" viewBox="0 0 808 282">
  <!-- Generator: Adobe Illustrator 30.2.1, SVG Export Plug-In . SVG Version: 2.1.1 Build 1)  -->
  <defs>
    <style>
      .st0 {
        fill: #fff;
      }
    </style>
  </defs>
  <g>
    <rect class="st0" x="9" y="36.55" width="64.33" height="64.33" rx="32.17" ry="32.17"/>
    <rect class="st0" x="166.78" y="36.55" width="64.33" height="64.33" rx="32.17" ry="32.17"/>
    <rect class="st0" x="166.78" y="182.12" width="64.33" height="64.33" rx="32.17" ry="32.17"/>
    <rect class="st0" x="9" y="109.33" width="64.33" height="64.33" rx="32.17" ry="32.17"/>
    <rect class="st0" x="9" y="109.33" width="64.33" height="137.12" rx="32.17" ry="32.17"/>
    <rect class="st0" x="87.89" y="36.55" width="64.33" height="209.9" rx="32.17" ry="32.17"/>
  </g>
  <g>
    <path class="st0" d="M287.25,83.32c0-2.28.41-4.41,1.24-6.38.83-1.97,1.94-3.68,3.34-5.13,1.4-1.45,3.06-2.59,4.98-3.42,1.92-.83,3.97-1.24,6.14-1.24s4.22.42,6.14,1.24c1.92.83,3.63,1.97,5.13,3.42,1.5,1.45,2.67,3.16,3.5,5.13.83,1.97,1.24,4.1,1.24,6.38s-.42,4.28-1.24,6.3c-.83,2.02-2,3.76-3.5,5.21-1.5,1.45-3.22,2.62-5.13,3.5-1.92.88-3.97,1.32-6.14,1.32s-4.23-.44-6.14-1.32c-1.92-.88-3.58-2.05-4.98-3.5-1.4-1.45-2.52-3.19-3.34-5.21-.83-2.02-1.24-4.12-1.24-6.3ZM290.21,103.86h25.67v76.22h-25.67v-76.22Z"/>
    <path class="st0" d="M377.63,128.43c-.31-.31-.91-.83-1.79-1.55-.88-.72-1.94-1.45-3.19-2.18-1.24-.72-2.7-1.35-4.36-1.87-1.66-.52-3.42-.78-5.29-.78-2.39,0-4.02.42-4.9,1.24-.88.83-1.32,1.71-1.32,2.64,0,1.24.54,2.25,1.63,3.03,1.09.78,2.57,1.48,4.43,2.1,2.7.93,5.94,1.84,9.72,2.72,3.78.88,7.39,2.15,10.81,3.81,3.42,1.66,6.32,3.89,8.71,6.69,2.38,2.8,3.58,6.64,3.58,11.51,0,3.84-.8,7.36-2.41,10.58-1.61,3.21-3.92,5.96-6.92,8.24-3.01,2.28-6.66,4.07-10.97,5.37-4.3,1.3-9.15,1.94-14.54,1.94-7.16,0-13.66-.93-19.52-2.8-5.86-1.87-10.55-4.51-14.08-7.93l15.09-16.96c.41.42,1.17,1.01,2.26,1.79s2.44,1.56,4.04,2.33c1.61.78,3.42,1.48,5.44,2.1,2.02.62,4.17.93,6.46.93,1.87,0,3.63-.26,5.29-.78,1.66-.52,2.49-1.61,2.49-3.27,0-1.14-.47-2.07-1.4-2.8-.93-.72-2.23-1.4-3.89-2.02-2.7-1.04-5.99-2.02-9.88-2.96-3.89-.93-7.65-2.2-11.28-3.81-3.63-1.61-6.72-3.81-9.26-6.61-2.54-2.8-3.81-6.53-3.81-11.2,0-3.84.8-7.36,2.41-10.58,1.61-3.21,3.89-5.96,6.84-8.24,2.96-2.28,6.53-4.04,10.73-5.29,4.2-1.24,8.94-1.87,14.23-1.87,4.04,0,7.72.36,11.04,1.09,3.32.73,6.22,1.58,8.71,2.57,2.49.99,4.56,2.02,6.22,3.11,1.66,1.09,2.9,2,3.73,2.72l-15.09,16.96Z"/>
    <path class="st0" d="M425.7,103.86l12.91,49.31h.31l13.07-49.31h28.93l-42.62,112h-28l15.09-36.09-28.62-75.91h28.93Z"/>
    <path class="st0" d="M494.29,103.86l5.45-20.22h20.22v20.22h20.07v20.22h-20.07v23.96c0,4.36.72,7.49,2.18,9.41,1.45,1.92,3.89,2.88,7.31,2.88,1.45,0,3.03-.16,4.74-.47,1.71-.31,3.66-.72,5.83-1.25v20.22c-6.95,1.87-13.43,2.8-19.44,2.8-7.78,0-14.1-1.81-18.98-5.44-4.88-3.63-7.31-9.54-7.31-17.73v-34.38h-10.89v-20.22h10.89Z"/>
    <path class="st0" d="M547.81,114.74c.62-.72,1.89-1.79,3.81-3.19,1.92-1.4,4.36-2.8,7.31-4.2s6.4-2.62,10.34-3.66c3.94-1.04,8.24-1.56,12.91-1.56s9.36.54,13.77,1.63c4.41,1.09,8.32,2.88,11.74,5.37,3.42,2.49,6.14,5.76,8.17,9.8,2.02,4.04,3.03,9.02,3.03,14.93v46.2h-21.78l-1.87-8.87c-2.39,3.32-5.39,5.89-9.02,7.7-3.63,1.81-8.14,2.72-13.53,2.72-4.15,0-7.8-.6-10.97-1.79-3.16-1.19-5.81-2.82-7.93-4.9-2.13-2.07-3.73-4.51-4.82-7.31s-1.63-5.81-1.63-9.02.7-6.48,2.1-9.49c1.4-3.01,3.63-5.62,6.69-7.86,3.06-2.23,7.02-4.02,11.9-5.37,4.87-1.35,10.78-2.02,17.73-2.02h9.02v-.62c0-3.11-1.12-5.55-3.34-7.31-2.23-1.76-5.89-2.64-10.97-2.64-2.28,0-4.49.31-6.61.93-2.13.62-4.04,1.35-5.76,2.18-1.71.83-3.19,1.69-4.43,2.57-1.24.88-2.13,1.58-2.64,2.1l-13.22-16.33ZM594.78,147.41h-8.09c-5.19,0-8.76.96-10.73,2.88-1.97,1.92-2.96,4.07-2.96,6.46,0,1.76.67,3.42,2.02,4.98,1.35,1.56,3.52,2.33,6.53,2.33,1.25,0,2.64-.31,4.2-.93,1.56-.62,2.98-1.56,4.28-2.8,1.29-1.24,2.41-2.82,3.34-4.74.93-1.92,1.4-4.12,1.4-6.61v-1.55Z"/>
    <path class="st0" d="M678.47,128.43c-.31-.31-.91-.83-1.79-1.55-.88-.72-1.94-1.45-3.19-2.18-1.24-.72-2.7-1.35-4.36-1.87-1.66-.52-3.42-.78-5.29-.78-2.39,0-4.02.42-4.9,1.24-.88.83-1.32,1.71-1.32,2.64,0,1.24.54,2.25,1.63,3.03,1.09.78,2.57,1.48,4.43,2.1,2.7.93,5.94,1.84,9.72,2.72,3.78.88,7.39,2.15,10.81,3.81,3.42,1.66,6.32,3.89,8.71,6.69,2.38,2.8,3.58,6.64,3.58,11.51,0,3.84-.8,7.36-2.41,10.58-1.61,3.21-3.92,5.96-6.92,8.24-3.01,2.28-6.67,4.07-10.97,5.37-4.3,1.3-9.15,1.94-14.54,1.94-7.16,0-13.67-.93-19.52-2.8-5.86-1.87-10.55-4.51-14.08-7.93l15.09-16.96c.41.42,1.17,1.01,2.26,1.79s2.44,1.56,4.04,2.33c1.61.78,3.42,1.48,5.45,2.1,2.02.62,4.17.93,6.46.93,1.87,0,3.63-.26,5.29-.78,1.66-.52,2.49-1.61,2.49-3.27,0-1.14-.47-2.07-1.4-2.8-.93-.72-2.23-1.4-3.89-2.02-2.7-1.04-5.99-2.02-9.88-2.96-3.89-.93-7.65-2.2-11.28-3.81-3.63-1.61-6.71-3.81-9.25-6.61-2.54-2.8-3.81-6.53-3.81-11.2,0-3.84.8-7.36,2.41-10.58,1.61-3.21,3.89-5.96,6.84-8.24,2.96-2.28,6.53-4.04,10.73-5.29,4.2-1.24,8.94-1.87,14.23-1.87,4.04,0,7.72.36,11.04,1.09,3.32.73,6.22,1.58,8.71,2.57,2.49.99,4.56,2.02,6.22,3.11,1.66,1.09,2.9,2,3.73,2.72l-15.09,16.96Z"/>
    <path class="st0" d="M732.45,180.08h-25.67v-112h25.67v63.78l22.55-28h32.51l-28.62,30.02,31.11,46.2h-31.11l-18.98-29.24-7.47,8.09v21.16Z"/>
  </g>
</svg>